<svg xmlns="http://www.w3.org/2000/svg" xmlns:xlink="http://www.w3.org/1999/xlink" width="300" zoomAndPan="magnify" viewBox="0 0 224.87999 60" height="80" preserveAspectRatio="xMidYMid meet" version="1.0"><defs><clipPath id="74ca9ca2e4"><path d="M 47 0.015625 L 191 0.015625 L 191 59.984375 L 47 59.984375 Z M 47 0.015625 " clip-rule="nonzero"/></clipPath><clipPath id="fed2371b38"><path d="M 176.390625 72.722656 L 47.503906 58.402344 L 61.242188 -65.269531 L 190.128906 -50.953125 Z M 176.390625 72.722656 " clip-rule="nonzero"/></clipPath><clipPath id="ec3292734f"><path d="M 176.390625 72.722656 L 47.503906 58.402344 L 61.242188 -65.269531 L 190.128906 -50.953125 Z M 176.390625 72.722656 " clip-rule="nonzero"/></clipPath></defs><g clip-path="url(#74ca9ca2e4)"><g clip-path="url(#fed2371b38)"><g clip-path="url(#ec3292734f)"><path fill="#a8ce67" d="M 189.648438 -48.820312 L 188.332031 -49.140625 C 188.492188 -49.789062 188.644531 -50.445312 188.792969 -51.097656 L 190.113281 -50.800781 C 189.960938 -50.140625 189.804688 -49.480469 189.648438 -48.820312 Z M 171.890625 -7.410156 L 170.75 -8.132812 C 170.019531 -6.988281 169.269531 -5.855469 168.503906 -4.730469 L 169.621094 -3.972656 C 170.398438 -5.105469 171.152344 -6.25 171.890625 -7.410156 Z M 167.257812 -0.609375 L 166.164062 -1.398438 C 165.363281 -0.296875 164.550781 0.792969 163.722656 1.867188 L 164.796875 2.6875 C 165.628906 1.601562 166.453125 0.503906 167.257812 -0.609375 Z M 162.230469 5.914062 L 161.183594 5.058594 C 160.320312 6.113281 159.445312 7.148438 158.550781 8.175781 L 159.574219 9.058594 C 160.472656 8.023438 161.359375 6.972656 162.230469 5.914062 Z M 156.824219 12.125 L 155.828125 11.210938 C 154.90625 12.207031 153.96875 13.195312 153.015625 14.164062 L 153.984375 15.105469 C 154.945312 14.128906 155.894531 13.132812 156.824219 12.125 Z M 151.058594 18.003906 L 150.121094 17.03125 C 149.140625 17.972656 148.144531 18.898438 147.136719 19.8125 L 148.046875 20.8125 C 149.0625 19.890625 150.070312 18.957031 151.058594 18.003906 Z M 176.117188 -14.472656 L 174.933594 -15.128906 C 174.269531 -13.941406 173.59375 -12.765625 172.894531 -11.601562 L 174.054688 -10.910156 C 174.761719 -12.085938 175.445312 -13.273438 176.117188 -14.472656 Z M 186.183594 -36.976562 L 184.902344 -37.414062 C 184.464844 -36.128906 184 -34.851562 183.523438 -33.578125 L 184.789062 -33.105469 C 185.269531 -34.390625 185.734375 -35.679688 186.183594 -36.976562 Z M 144.945312 23.527344 L 144.070312 22.5 C 143.035156 23.378906 141.984375 24.242188 140.921875 25.09375 L 141.765625 26.144531 C 142.839844 25.289062 143.898438 24.414062 144.945312 23.527344 Z M 188.613281 -44.835938 L 187.308594 -45.195312 C 186.945312 -43.886719 186.566406 -42.585938 186.164062 -41.285156 L 187.453125 -40.890625 C 187.863281 -42.199219 188.246094 -43.515625 188.613281 -44.835938 Z M 179.914062 -21.769531 L 178.695312 -22.355469 C 178.105469 -21.132812 177.496094 -19.917969 176.871094 -18.714844 L 178.070312 -18.09375 C 178.703125 -19.308594 179.316406 -20.535156 179.914062 -21.769531 Z M 183.277344 -29.28125 L 182.027344 -29.792969 C 181.507812 -28.535156 180.972656 -27.289062 180.417969 -26.046875 L 181.648438 -25.5 C 182.210938 -26.75 182.753906 -28.011719 183.277344 -29.28125 Z M 78.367188 54.234375 L 78.140625 52.90625 C 76.796875 53.132812 75.453125 53.339844 74.101562 53.523438 L 74.285156 54.859375 C 75.648438 54.671875 77.007812 54.464844 78.367188 54.234375 Z M 94.4375 50.558594 L 94.058594 49.265625 C 92.753906 49.644531 91.4375 50.007812 90.121094 50.351562 L 90.460938 51.65625 C 91.792969 51.308594 93.117188 50.945312 94.4375 50.558594 Z M 86.457031 52.632812 L 86.15625 51.320312 C 84.828125 51.621094 83.496094 51.90625 82.160156 52.171875 L 82.425781 53.492188 C 83.773438 53.226562 85.117188 52.9375 86.457031 52.632812 Z M 138.507812 28.667969 L 137.695312 27.589844 C 136.605469 28.40625 135.503906 29.203125 134.390625 29.984375 L 135.167969 31.085938 C 136.292969 30.292969 137.40625 29.488281 138.507812 28.667969 Z M 57.84375 56.121094 C 59.21875 56.097656 60.589844 56.054688 61.964844 55.992188 L 61.902344 54.644531 C 60.539062 54.707031 59.179688 54.75 57.816406 54.773438 Z M 70.191406 55.359375 L 70.046875 54.015625 C 68.691406 54.164062 67.335938 54.289062 65.976562 54.390625 L 66.082031 55.734375 C 67.457031 55.628906 68.824219 55.503906 70.191406 55.359375 Z M 131.757812 33.398438 L 131.015625 32.273438 C 129.878906 33.019531 128.730469 33.75 127.570312 34.460938 L 128.28125 35.609375 C 129.449219 34.890625 130.609375 34.152344 131.757812 33.398438 Z M 102.28125 48.019531 L 101.828125 46.75 C 100.546875 47.207031 99.257812 47.644531 97.960938 48.066406 L 98.378906 49.347656 C 99.691406 48.925781 100.988281 48.480469 102.28125 48.019531 Z M 124.734375 37.707031 L 124.058594 36.539062 C 122.878906 37.214844 121.6875 37.875 120.488281 38.515625 L 121.125 39.703125 C 122.335938 39.054688 123.539062 38.390625 124.734375 37.707031 Z M 117.460938 41.589844 L 116.855469 40.382812 C 115.640625 40.988281 114.410156 41.574219 113.171875 42.140625 L 113.738281 43.367188 C 114.988281 42.789062 116.226562 42.199219 117.460938 41.589844 Z M 109.96875 45.027344 L 109.4375 43.789062 C 108.1875 44.320312 106.925781 44.832031 105.65625 45.324219 L 106.148438 46.582031 C 107.429688 46.082031 108.703125 45.566406 109.96875 45.027344 Z M 59.589844 59.742188 L 60.074219 58.488281 L 53.695312 56.039062 L 53.710938 54.78125 C 53.605469 54.777344 53.5 54.773438 53.394531 54.773438 L 60.179688 52.453125 L 59.742188 51.175781 L 47.855469 55.242188 Z M 59.589844 59.742188 " fill-opacity="1" fill-rule="nonzero"/></g></g></g></svg>