<svg xmlns="http://www.w3.org/2000/svg" xmlns:xlink="http://www.w3.org/1999/xlink" width="300" zoomAndPan="magnify" viewBox="0 0 224.87999 60" height="80" preserveAspectRatio="xMidYMid meet" version="1.0"><defs><clipPath id="5d53a6d534"><path d="M 137 50 L 145 50 L 145 57 L 137 57 Z M 137 50 " clip-rule="nonzero"/></clipPath><clipPath id="452f4967fd"><path d="M 137.847656 -4.816406 L 144.558594 56.28125 L 67.066406 64.796875 L 60.355469 3.699219 Z M 137.847656 -4.816406 " clip-rule="nonzero"/></clipPath><clipPath id="f94d02341b"><path d="M 137.847656 -4.816406 L 144.558594 56.28125 L 67.066406 64.796875 L 60.355469 3.699219 Z M 137.847656 -4.816406 " clip-rule="nonzero"/></clipPath><clipPath id="2e28edefc7"><path d="M 60 3 L 63 3 L 63 7 L 60 7 Z M 60 3 " clip-rule="nonzero"/></clipPath><clipPath id="2f5a801975"><path d="M 137.847656 -4.816406 L 144.558594 56.28125 L 67.066406 64.796875 L 60.355469 3.699219 Z M 137.847656 -4.816406 " clip-rule="nonzero"/></clipPath><clipPath id="4bdc2a5201"><path d="M 137.847656 -4.816406 L 144.558594 56.28125 L 67.066406 64.796875 L 60.355469 3.699219 Z M 137.847656 -4.816406 " clip-rule="nonzero"/></clipPath><clipPath id="aedf816223"><path d="M 62 7 L 135 7 L 135 54 L 62 54 Z M 62 7 " clip-rule="nonzero"/></clipPath><clipPath id="59f3a400c5"><path d="M 137.847656 -4.816406 L 144.558594 56.28125 L 67.066406 64.796875 L 60.355469 3.699219 Z M 137.847656 -4.816406 " clip-rule="nonzero"/></clipPath><clipPath id="b2fe596770"><path d="M 137.847656 -4.816406 L 144.558594 56.28125 L 67.066406 64.796875 L 60.355469 3.699219 Z M 137.847656 -4.816406 " clip-rule="nonzero"/></clipPath><clipPath id="041b9da950"><path d="M 135 52 L 139 52 L 139 55 L 135 55 Z M 135 52 " clip-rule="nonzero"/></clipPath><clipPath id="768027657b"><path d="M 137.847656 -4.816406 L 144.558594 56.28125 L 67.066406 64.796875 L 60.355469 3.699219 Z M 137.847656 -4.816406 " clip-rule="nonzero"/></clipPath><clipPath id="c584bf0017"><path d="M 137.847656 -4.816406 L 144.558594 56.28125 L 67.066406 64.796875 L 60.355469 3.699219 Z M 137.847656 -4.816406 " clip-rule="nonzero"/></clipPath></defs><g clip-path="url(#5d53a6d534)"><g clip-path="url(#452f4967fd)"><g clip-path="url(#f94d02341b)"><path fill="#a8ce67" d="M 138.824219 50.421875 L 143.367188 52.632812 C 143.644531 52.765625 143.863281 52.96875 144.015625 53.234375 C 144.167969 53.5 144.234375 53.789062 144.210938 54.09375 C 144.1875 54.402344 144.078125 54.675781 143.886719 54.917969 C 143.695312 55.15625 143.453125 55.324219 143.15625 55.414062 L 138.328125 56.914062 C 138.21875 56.949219 138.105469 56.957031 137.992188 56.933594 C 137.878906 56.914062 137.773438 56.867188 137.683594 56.796875 C 137.59375 56.722656 137.527344 56.636719 137.480469 56.53125 C 137.433594 56.425781 137.414062 56.3125 137.421875 56.199219 C 137.4375 55.992188 137.527344 55.824219 137.6875 55.699219 L 138.90625 54.753906 C 139.0625 54.632812 139.191406 54.480469 139.285156 54.308594 C 139.378906 54.132812 139.433594 53.945312 139.453125 53.746094 C 139.46875 53.546875 139.441406 53.355469 139.375 53.164062 C 139.3125 52.976562 139.210938 52.808594 139.074219 52.664062 L 138.003906 51.519531 C 137.867188 51.371094 137.804688 51.195312 137.820312 50.992188 C 137.828125 50.878906 137.863281 50.769531 137.925781 50.671875 C 137.988281 50.574219 138.070312 50.5 138.167969 50.441406 C 138.269531 50.382812 138.378906 50.355469 138.492188 50.351562 C 138.609375 50.347656 138.71875 50.371094 138.824219 50.421875 Z M 138.824219 50.421875 " fill-opacity="1" fill-rule="nonzero"/></g></g></g><g clip-path="url(#2e28edefc7)"><g clip-path="url(#2f5a801975)"><g clip-path="url(#4bdc2a5201)"><path fill="#a8ce67" d="M 60.433594 4.25 C 60.433594 4.3125 60.441406 4.375 60.460938 4.433594 C 60.464844 4.457031 60.625 4.957031 60.976562 5.855469 C 61.039062 6.007812 61.140625 6.113281 61.292969 6.179688 C 61.441406 6.242188 61.589844 6.246094 61.742188 6.1875 C 61.894531 6.128906 62 6.023438 62.066406 5.875 C 62.132812 5.726562 62.136719 5.578125 62.074219 5.425781 C 61.746094 4.570312 61.589844 4.085938 61.585938 4.082031 C 61.546875 3.9375 61.46875 3.828125 61.34375 3.746094 C 61.21875 3.664062 61.082031 3.632812 60.933594 3.652344 C 60.789062 3.675781 60.664062 3.742188 60.570312 3.859375 C 60.472656 3.972656 60.429688 4.105469 60.433594 4.253906 Z M 60.433594 4.25 " fill-opacity="1" fill-rule="nonzero"/></g></g></g><g clip-path="url(#aedf816223)"><g clip-path="url(#59f3a400c5)"><g clip-path="url(#b2fe596770)"><path fill="#a8ce67" d="M 62.472656 7.871094 C 62.621094 7.800781 62.773438 7.796875 62.925781 7.851562 C 63.078125 7.90625 63.191406 8.007812 63.257812 8.15625 C 63.671875 9.035156 64.121094 9.933594 64.597656 10.828125 C 64.675781 10.96875 64.6875 11.121094 64.640625 11.273438 C 64.59375 11.429688 64.5 11.546875 64.355469 11.621094 C 64.210938 11.699219 64.0625 11.710938 63.90625 11.664062 C 63.75 11.617188 63.632812 11.523438 63.558594 11.378906 C 63.070312 10.46875 62.613281 9.550781 62.191406 8.65625 C 62.152344 8.574219 62.132812 8.488281 62.136719 8.398438 C 62.136719 8.152344 62.25 7.976562 62.472656 7.871094 Z M 65.261719 13.226562 C 65.398438 13.144531 65.546875 13.121094 65.707031 13.160156 C 65.863281 13.203125 65.984375 13.292969 66.066406 13.433594 C 66.570312 14.277344 67.101562 15.132812 67.652344 15.964844 C 67.738281 16.101562 67.765625 16.25 67.734375 16.410156 C 67.699219 16.566406 67.613281 16.691406 67.476562 16.78125 C 67.339844 16.871094 67.191406 16.898438 67.03125 16.863281 C 66.875 16.832031 66.75 16.746094 66.660156 16.609375 C 66.101562 15.757812 65.558594 14.890625 65.046875 14.027344 C 64.964844 13.886719 64.941406 13.738281 64.984375 13.582031 C 65.023438 13.425781 65.113281 13.304688 65.253906 13.222656 Z M 68.519531 18.300781 C 68.652344 18.207031 68.800781 18.171875 68.960938 18.199219 C 69.121094 18.222656 69.25 18.304688 69.34375 18.4375 C 69.921875 19.242188 70.523438 20.046875 71.140625 20.828125 C 71.238281 20.957031 71.28125 21.101562 71.257812 21.265625 C 71.238281 21.425781 71.164062 21.554688 71.035156 21.65625 C 70.910156 21.753906 70.761719 21.796875 70.601562 21.777344 C 70.441406 21.753906 70.308594 21.679688 70.210938 21.554688 C 69.585938 20.753906 68.96875 19.9375 68.386719 19.117188 C 68.3125 19.015625 68.273438 18.898438 68.277344 18.769531 C 68.28125 18.574219 68.363281 18.417969 68.519531 18.300781 Z M 72.191406 23.085938 C 72.316406 22.980469 72.460938 22.933594 72.621094 22.945312 C 72.785156 22.960938 72.917969 23.027344 73.023438 23.15625 C 73.664062 23.90625 74.332031 24.664062 75.007812 25.398438 C 75.117188 25.519531 75.167969 25.660156 75.160156 25.820312 C 75.15625 25.984375 75.09375 26.121094 74.972656 26.230469 C 74.851562 26.34375 74.710938 26.394531 74.546875 26.386719 C 74.386719 26.382812 74.25 26.320312 74.136719 26.199219 C 73.453125 25.453125 72.777344 24.6875 72.125 23.921875 C 72.03125 23.808594 71.984375 23.679688 71.984375 23.535156 C 71.984375 23.355469 72.054688 23.203125 72.191406 23.085938 Z M 76.238281 27.558594 C 76.355469 27.441406 76.492188 27.386719 76.65625 27.386719 C 76.820312 27.386719 76.957031 27.445312 77.074219 27.5625 C 77.773438 28.261719 78.496094 28.960938 79.226562 29.640625 C 79.34375 29.75 79.40625 29.886719 79.414062 30.050781 C 79.417969 30.214844 79.367188 30.355469 79.257812 30.472656 C 79.144531 30.59375 79.007812 30.65625 78.84375 30.660156 C 78.683594 30.667969 78.542969 30.613281 78.421875 30.503906 C 77.679688 29.816406 76.945312 29.105469 76.234375 28.386719 C 76.121094 28.273438 76.0625 28.132812 76.0625 27.972656 C 76.0625 27.808594 76.121094 27.667969 76.238281 27.554688 Z M 80.625 31.699219 C 80.734375 31.574219 80.867188 31.503906 81.03125 31.492188 C 81.191406 31.480469 81.335938 31.527344 81.457031 31.636719 C 82.210938 32.28125 82.988281 32.925781 83.765625 33.542969 C 83.894531 33.644531 83.964844 33.777344 83.984375 33.9375 C 84.003906 34.097656 83.960938 34.242188 83.859375 34.371094 C 83.757812 34.496094 83.625 34.570312 83.464844 34.589844 C 83.304688 34.605469 83.160156 34.566406 83.03125 34.464844 C 82.242188 33.835938 81.453125 33.183594 80.6875 32.527344 C 80.5625 32.421875 80.496094 32.289062 80.484375 32.125 C 80.472656 31.964844 80.519531 31.820312 80.625 31.699219 Z M 85.320312 35.488281 C 85.417969 35.355469 85.546875 35.277344 85.707031 35.253906 C 85.871094 35.226562 86.015625 35.265625 86.148438 35.363281 C 86.945312 35.949219 87.769531 36.527344 88.59375 37.09375 C 88.726562 37.1875 88.808594 37.3125 88.839844 37.472656 C 88.871094 37.628906 88.839844 37.777344 88.746094 37.910156 C 88.65625 38.046875 88.53125 38.128906 88.371094 38.160156 C 88.210938 38.1875 88.0625 38.160156 87.929688 38.066406 C 87.09375 37.5 86.257812 36.910156 85.449219 36.3125 C 85.316406 36.21875 85.238281 36.089844 85.210938 35.929688 C 85.1875 35.769531 85.226562 35.621094 85.320312 35.492188 Z M 90.285156 38.910156 C 90.371094 38.773438 90.496094 38.683594 90.65625 38.648438 C 90.8125 38.613281 90.960938 38.636719 91.101562 38.726562 C 91.941406 39.25 92.804688 39.769531 93.667969 40.269531 C 93.808594 40.351562 93.898438 40.472656 93.941406 40.628906 C 93.980469 40.785156 93.960938 40.9375 93.878906 41.078125 C 93.796875 41.21875 93.675781 41.308594 93.519531 41.351562 C 93.363281 41.390625 93.210938 41.371094 93.070312 41.289062 C 92.195312 40.785156 91.320312 40.257812 90.46875 39.722656 C 90.328125 39.636719 90.242188 39.515625 90.207031 39.355469 C 90.167969 39.199219 90.195312 39.050781 90.28125 38.910156 Z M 95.496094 41.964844 C 95.570312 41.820312 95.6875 41.722656 95.84375 41.675781 C 96 41.628906 96.148438 41.644531 96.292969 41.71875 C 97.167969 42.1875 98.066406 42.644531 98.960938 43.082031 C 99.109375 43.152344 99.207031 43.265625 99.261719 43.417969 C 99.316406 43.570312 99.304688 43.722656 99.234375 43.867188 C 99.164062 44.015625 99.050781 44.113281 98.894531 44.167969 C 98.742188 44.21875 98.59375 44.210938 98.445312 44.136719 C 97.535156 43.695312 96.625 43.230469 95.738281 42.761719 C 95.527344 42.648438 95.421875 42.472656 95.425781 42.234375 C 95.425781 42.136719 95.449219 42.046875 95.496094 41.964844 Z M 100.898438 44.644531 C 100.964844 44.496094 101.074219 44.394531 101.226562 44.335938 C 101.378906 44.277344 101.527344 44.28125 101.679688 44.347656 C 102.582031 44.753906 103.511719 45.148438 104.433594 45.523438 C 104.585938 45.585938 104.691406 45.691406 104.753906 45.84375 C 104.820312 45.992188 104.820312 46.140625 104.757812 46.292969 C 104.695312 46.445312 104.589844 46.550781 104.441406 46.613281 C 104.289062 46.675781 104.140625 46.675781 103.988281 46.613281 C 103.050781 46.234375 102.113281 45.832031 101.195312 45.421875 C 100.957031 45.316406 100.839844 45.132812 100.847656 44.875 C 100.847656 44.792969 100.863281 44.71875 100.894531 44.648438 Z M 106.46875 46.960938 C 106.527344 46.808594 106.628906 46.695312 106.777344 46.628906 C 106.925781 46.558594 107.078125 46.554688 107.230469 46.613281 C 108.15625 46.957031 109.109375 47.292969 110.050781 47.613281 C 110.207031 47.664062 110.320312 47.761719 110.390625 47.90625 C 110.464844 48.054688 110.472656 48.203125 110.421875 48.359375 C 110.371094 48.511719 110.269531 48.625 110.125 48.699219 C 109.980469 48.769531 109.828125 48.78125 109.675781 48.726562 C 108.714844 48.40625 107.753906 48.066406 106.8125 47.71875 C 106.550781 47.621094 106.421875 47.433594 106.429688 47.15625 C 106.429688 47.089844 106.441406 47.023438 106.464844 46.960938 Z M 112.179688 48.914062 C 112.226562 48.757812 112.320312 48.644531 112.464844 48.566406 C 112.609375 48.488281 112.757812 48.476562 112.914062 48.523438 C 113.859375 48.808594 114.832031 49.089844 115.796875 49.351562 C 115.953125 49.394531 116.074219 49.484375 116.152344 49.625 C 116.234375 49.765625 116.253906 49.914062 116.210938 50.074219 C 116.167969 50.230469 116.078125 50.347656 115.933594 50.429688 C 115.792969 50.507812 115.644531 50.527344 115.488281 50.484375 C 114.515625 50.222656 113.527344 49.941406 112.570312 49.648438 C 112.445312 49.613281 112.34375 49.539062 112.265625 49.433594 C 112.191406 49.328125 112.152344 49.210938 112.15625 49.078125 C 112.152344 49.023438 112.160156 48.96875 112.171875 48.917969 Z M 117.992188 50.527344 C 118.03125 50.371094 118.121094 50.25 118.257812 50.164062 C 118.398438 50.078125 118.546875 50.058594 118.703125 50.097656 C 119.667969 50.328125 120.652344 50.550781 121.632812 50.757812 C 121.792969 50.792969 121.914062 50.878906 122.003906 51.015625 C 122.09375 51.148438 122.121094 51.296875 122.085938 51.457031 C 122.050781 51.617188 121.96875 51.738281 121.832031 51.828125 C 121.695312 51.917969 121.546875 51.945312 121.386719 51.910156 C 120.394531 51.699219 119.402344 51.476562 118.429688 51.238281 C 118.292969 51.207031 118.183594 51.140625 118.101562 51.03125 C 118.015625 50.921875 117.976562 50.800781 117.976562 50.664062 C 117.976562 50.617188 117.980469 50.574219 117.988281 50.527344 Z M 123.890625 51.8125 C 123.917969 51.652344 124 51.527344 124.136719 51.433594 C 124.269531 51.339844 124.417969 51.308594 124.578125 51.339844 C 125.550781 51.519531 126.546875 51.691406 127.535156 51.847656 C 127.695312 51.875 127.824219 51.953125 127.921875 52.082031 C 128.015625 52.214844 128.050781 52.359375 128.027344 52.523438 C 128 52.683594 127.921875 52.808594 127.789062 52.90625 C 127.660156 53 127.511719 53.035156 127.351562 53.011719 C 126.351562 52.851562 125.34375 52.679688 124.363281 52.496094 C 124.222656 52.472656 124.105469 52.402344 124.015625 52.292969 C 123.921875 52.183594 123.878906 52.058594 123.878906 51.914062 C 123.878906 51.878906 123.878906 51.847656 123.886719 51.8125 Z M 129.847656 52.789062 C 129.867188 52.625 129.941406 52.496094 130.070312 52.398438 C 130.203125 52.296875 130.347656 52.261719 130.507812 52.28125 C 131.492188 52.410156 132.496094 52.535156 133.496094 52.644531 C 133.660156 52.664062 133.789062 52.738281 133.890625 52.863281 C 133.992188 52.992188 134.03125 53.136719 134.011719 53.300781 C 133.992188 53.460938 133.921875 53.59375 133.792969 53.691406 C 133.664062 53.792969 133.519531 53.835938 133.355469 53.816406 C 132.351562 53.703125 131.335938 53.582031 130.347656 53.449219 C 130.199219 53.429688 130.074219 53.363281 129.976562 53.253906 C 129.878906 53.140625 129.832031 53.007812 129.835938 52.859375 C 129.835938 52.835938 129.839844 52.8125 129.839844 52.789062 Z M 129.847656 52.789062 " fill-opacity="1" fill-rule="nonzero"/></g></g></g><g clip-path="url(#041b9da950)"><g clip-path="url(#768027657b)"><g clip-path="url(#c584bf0017)"><path fill="#a8ce67" d="M 135.851562 53.519531 C 135.847656 53.671875 135.898438 53.808594 136 53.921875 C 136.105469 54.035156 136.234375 54.097656 136.386719 54.109375 C 136.878906 54.152344 137.375 54.191406 137.863281 54.230469 C 138.023438 54.242188 138.167969 54.195312 138.289062 54.089844 C 138.414062 53.984375 138.480469 53.851562 138.496094 53.6875 C 138.507812 53.527344 138.460938 53.382812 138.355469 53.261719 C 138.25 53.136719 138.113281 53.070312 137.953125 53.058594 C 137.46875 53.019531 136.976562 52.980469 136.488281 52.9375 C 136.324219 52.925781 136.183594 52.96875 136.058594 53.074219 C 135.933594 53.183594 135.863281 53.316406 135.851562 53.480469 C 135.851562 53.492188 135.851562 53.507812 135.851562 53.519531 Z M 135.851562 53.519531 " fill-opacity="1" fill-rule="nonzero"/></g></g></g></svg>