<svg xmlns="http://www.w3.org/2000/svg" xmlns:xlink="http://www.w3.org/1999/xlink" width="200" zoomAndPan="magnify" viewBox="0 0 150 82.499998" height="110" preserveAspectRatio="xMidYMid meet" version="1.0"><defs><g/><clipPath id="d682f60282"><path d="M 1 21 L 58 21 L 58 60 L 1 60 Z M 1 21 " clip-rule="nonzero"/></clipPath><clipPath id="07e0e134c4"><path d="M 0.449219 31.359375 L 7.273438 19.972656 L 60.855469 52.082031 L 54.03125 63.46875 Z M 0.449219 31.359375 " clip-rule="nonzero"/></clipPath><clipPath id="086bc70612"><path d="M 0.449219 31.359375 L 7.273438 19.972656 L 60.855469 52.082031 L 54.03125 63.46875 Z M 0.449219 31.359375 " clip-rule="nonzero"/></clipPath><clipPath id="d16e2a9bd9"><path d="M 90 22 L 146 22 L 146 60 L 90 60 Z M 90 22 " clip-rule="nonzero"/></clipPath><clipPath id="fc80f1adc7"><path d="M 140.476562 19.097656 L 148.589844 32.445312 L 95.207031 64.886719 L 87.09375 51.542969 Z M 140.476562 19.097656 " clip-rule="nonzero"/></clipPath><clipPath id="9ab34bffae"><path d="M 140.476562 19.097656 L 148.589844 32.445312 L 95.207031 64.886719 L 87.09375 51.542969 Z M 140.476562 19.097656 " clip-rule="nonzero"/></clipPath><clipPath id="8adaf8f314"><path d="M 43.765625 3 L 106 3 L 106 58.738281 L 43.765625 58.738281 Z M 43.765625 3 " clip-rule="nonzero"/></clipPath></defs><g clip-path="url(#d682f60282)"><g clip-path="url(#07e0e134c4)"><g clip-path="url(#086bc70612)"><path fill="#0c360a" d="M 27.296875 37.082031 C 26.4375 36.566406 25.714844 35.84375 25.199219 34.984375 L 24.050781 31.722656 C 23.554688 30.304688 22.554688 29.128906 21.25 28.410156 L 7.144531 21.601562 C 6.796875 21.410156 6.359375 21.535156 6.15625 21.867188 C 5.957031 22.199219 6.070312 22.625 6.417969 22.816406 L 18.660156 29.351562 C 19.136719 29.617188 19.3125 30.191406 19.050781 30.632812 C 18.785156 31.074219 18.183594 31.207031 17.710938 30.933594 L 5.617188 24.15625 C 5.273438 23.957031 4.839844 24.070312 4.636719 24.402344 C 4.4375 24.734375 4.546875 25.164062 4.886719 25.371094 L 16.851562 32.371094 C 17.320312 32.648438 17.492188 33.230469 17.230469 33.671875 C 16.964844 34.113281 16.371094 34.234375 15.902344 33.949219 L 4.089844 26.703125 C 3.746094 26.503906 3.316406 26.609375 3.117188 26.941406 C 2.917969 27.277344 3.023438 27.714844 3.355469 27.925781 L 15.039062 35.394531 C 15.5 35.683594 15.667969 36.277344 15.402344 36.71875 C 15.140625 37.15625 14.550781 37.273438 14.089844 36.976562 L 2.554688 29.261719 C 2.222656 29.046875 1.792969 29.148438 1.59375 29.480469 C 1.394531 29.816406 1.496094 30.261719 1.828125 30.476562 L 14.480469 39.707031 C 15.730469 40.515625 17.234375 40.835938 18.722656 40.613281 L 22.140625 40.085938 C 23.148438 40.136719 24.117188 40.433594 24.976562 40.949219 C 24.976562 40.949219 38.277344 47.722656 49.609375 56.777344 C 49.609375 56.777344 55.027344 61.777344 57.429688 57.773438 C 59.828125 53.765625 52.867188 51.34375 52.867188 51.34375 C 39.542969 45.617188 27.296875 37.082031 27.296875 37.082031 Z M 27.296875 37.082031 " fill-opacity="1" fill-rule="nonzero"/></g></g></g><g clip-path="url(#d16e2a9bd9)"><g clip-path="url(#fc80f1adc7)"><g clip-path="url(#9ab34bffae)"><path fill="#0c360a" d="M 124.039062 40.71875 C 123.953125 40.769531 110.261719 48.042969 98.984375 57.191406 C 98.984375 57.191406 93.59375 62.234375 91.148438 58.214844 C 88.710938 54.195312 95.667969 51.734375 95.667969 51.734375 C 108.980469 45.933594 121.742188 37.132812 121.828125 37.078125 C 124.320312 35.5625 123.378906 33.113281 125.691406 29.570312 C 126.753906 27.9375 128.183594 26.597656 129.851562 25.613281 C 133.3125 23.578125 141.011719 19.980469 144.53125 25.769531 C 148.054688 31.566406 141.3125 36.738281 137.910156 38.875 C 136.269531 39.902344 134.421875 40.554688 132.488281 40.746094 C 128.273438 41.167969 126.53125 39.203125 124.039062 40.71875 Z M 124.039062 40.71875 " fill-opacity="1" fill-rule="nonzero"/></g></g></g><g clip-path="url(#8adaf8f314)"><path fill="#5b9936" d="M 100.96875 33.746094 L 98.171875 33.746094 C 98.300781 33.347656 98.300781 32.816406 98.300781 32.414062 C 98.300781 31.085938 98.035156 29.890625 97.367188 28.828125 C 100.691406 27.367188 100.566406 24.179688 100.566406 21.257812 C 100.566406 18.46875 100.566406 15.675781 102.5625 13.019531 C 106.160156 8.503906 104.5625 5.84375 103.761719 4.78125 C 101.902344 2.789062 98.171875 2.519531 95.507812 4.382812 C 94.042969 5.3125 92.046875 5.3125 90.046875 5.179688 C 87.382812 5.050781 84.320312 4.914062 83.121094 7.96875 C 81.390625 12.355469 79.257812 12.621094 76.324219 13.152344 C 75.261719 13.277344 74.328125 13.550781 73.257812 13.816406 C 71.257812 14.480469 70.058594 16.207031 69.660156 18.597656 C 68.304688 17.988281 66.886719 17.679688 65.398438 17.667969 C 64.402344 17.660156 63.425781 17.792969 62.46875 18.066406 C 62.597656 16.605469 63.398438 13.683594 66.464844 13.683594 C 67.261719 13.683594 67.796875 13.152344 67.796875 12.355469 C 67.796875 11.558594 67.261719 11.027344 66.464844 11.027344 C 63.394531 11.027344 61.535156 12.753906 60.738281 14.878906 C 60.46875 14.449219 60.15625 14.050781 59.804688 13.683594 C 56.746094 10.761719 51.949219 10.894531 51.683594 10.894531 C 51.527344 10.894531 51.371094 10.921875 51.226562 10.984375 C 51.078125 11.042969 50.949219 11.128906 50.835938 11.238281 C 50.722656 11.351562 50.636719 11.480469 50.578125 11.625 C 50.515625 11.773438 50.484375 11.925781 50.484375 12.082031 C 50.484375 12.210938 50.355469 15.804688 52.082031 18.726562 C 49.285156 20.320312 47.820312 23.507812 47.820312 28.027344 C 47.835938 29.882812 48.105469 31.699219 48.625 33.480469 L 47.820312 33.480469 C 45.554688 33.480469 43.824219 35.207031 43.824219 37.464844 C 43.824219 39.722656 45.554688 41.449219 47.820312 41.449219 L 47.949219 41.449219 C 48.613281 51.144531 56.742188 58.722656 66.464844 58.722656 L 82.449219 58.722656 C 83.617188 58.726562 84.773438 58.617188 85.917969 58.402344 C 87.066406 58.1875 88.183594 57.867188 89.269531 57.441406 C 90.355469 57.015625 91.390625 56.488281 92.378906 55.867188 C 93.363281 55.246094 94.285156 54.539062 95.136719 53.742188 C 95.988281 52.949219 96.757812 52.082031 97.449219 51.140625 C 98.136719 50.199219 98.730469 49.203125 99.230469 48.152344 C 99.726562 47.101562 100.125 46.011719 100.417969 44.882812 C 100.710938 43.757812 100.894531 42.613281 100.96875 41.449219 L 101.097656 41.449219 C 103.363281 41.449219 105.09375 39.722656 105.09375 37.464844 C 105.09375 35.207031 103.230469 33.746094 100.96875 33.746094 Z M 85.113281 33.746094 C 84.984375 33.347656 84.984375 32.816406 84.984375 32.414062 C 84.988281 32.070312 85.027344 31.726562 85.101562 31.390625 C 85.171875 31.050781 85.277344 30.726562 85.414062 30.40625 C 85.550781 30.089844 85.714844 29.789062 85.910156 29.503906 C 86.105469 29.21875 86.328125 28.953125 86.574219 28.710938 C 86.820312 28.46875 87.089844 28.253906 87.378906 28.0625 C 87.667969 27.871094 87.972656 27.710938 88.292969 27.578125 C 88.613281 27.449219 88.941406 27.351562 89.28125 27.285156 C 89.621094 27.214844 89.964844 27.183594 90.3125 27.183594 C 90.660156 27.183594 91.003906 27.214844 91.34375 27.285156 C 91.683594 27.351562 92.011719 27.449219 92.332031 27.578125 C 92.652344 27.710938 92.957031 27.871094 93.246094 28.0625 C 93.535156 28.253906 93.804688 28.46875 94.050781 28.710938 C 94.296875 28.953125 94.519531 29.21875 94.714844 29.503906 C 94.910156 29.789062 95.074219 30.089844 95.210938 30.40625 C 95.347656 30.726562 95.453125 31.050781 95.523438 31.390625 C 95.597656 31.726562 95.636719 32.070312 95.640625 32.414062 C 95.640625 32.816406 95.511719 33.34375 95.511719 33.746094 Z M 74.0625 16.339844 C 74.996094 16.074219 75.792969 15.941406 76.726562 15.675781 C 79.796875 15.144531 83.246094 14.613281 85.519531 8.898438 C 85.917969 7.703125 87.25 7.703125 89.914062 7.835938 C 92.179688 7.964844 94.84375 7.964844 96.972656 6.640625 C 98.707031 5.445312 100.96875 5.710938 101.769531 6.640625 C 102.570312 7.570312 102.171875 9.296875 100.4375 11.421875 C 97.773438 14.738281 97.773438 18.464844 97.773438 21.386719 C 97.773438 24.703125 97.644531 26.039062 95.507812 26.703125 C 94.9375 26.175781 94.304688 25.742188 93.605469 25.398438 C 92.90625 25.054688 92.171875 24.820312 91.40625 24.691406 C 90.640625 24.558594 89.867188 24.542969 89.097656 24.636719 C 88.324219 24.730469 87.582031 24.933594 86.867188 25.242188 C 86.152344 25.550781 85.5 25.957031 84.90625 26.457031 C 84.308594 26.957031 83.796875 27.53125 83.371094 28.179688 C 82.945312 28.828125 82.617188 29.527344 82.394531 30.269531 C 82.171875 31.011719 82.058594 31.773438 82.054688 32.546875 C 82.054688 32.949219 82.054688 33.476562 82.183594 33.878906 L 77.925781 33.878906 C 82.054688 23.25 92.3125 15.015625 92.3125 15.015625 C 92.84375 14.621094 92.976562 13.6875 92.578125 13.15625 C 92.175781 12.625 91.246094 12.492188 90.714844 12.890625 C 90.179688 13.292969 79.257812 22.058594 75.128906 33.882812 L 73.261719 33.882812 C 73.78125 32.105469 74.050781 30.289062 74.0625 28.4375 C 74.0625 25.121094 73.261719 22.589844 71.929688 20.863281 C 72.195312 18.863281 72.464844 16.871094 74.0625 16.339844 Z M 53.015625 13.816406 C 54.347656 13.941406 56.339844 14.347656 57.8125 15.675781 C 58.476562 16.339844 58.875 17.269531 59.277344 18.066406 C 58.441406 17.90625 57.597656 17.816406 56.746094 17.800781 C 56.027344 17.816406 55.316406 17.90625 54.613281 18.066406 C 53.414062 16.738281 53.015625 14.878906 53.015625 13.816406 Z M 50.351562 28.296875 C 50.351562 20.460938 55.148438 20.460938 56.617188 20.460938 C 57.960938 20.453125 59.25 20.71875 60.480469 21.257812 C 60.882812 21.382812 61.28125 21.382812 61.546875 21.257812 C 62.777344 20.71875 64.066406 20.453125 65.410156 20.460938 C 66.339844 20.460938 68.339844 20.460938 69.9375 22.1875 L 70.066406 22.3125 C 71 23.511719 71.796875 25.238281 71.796875 28.425781 C 71.796875 30.152344 71.398438 32.144531 70.867188 33.875 L 51.417969 33.875 C 50.75 32.015625 50.351562 30.023438 50.351562 28.296875 Z M 82.320312 56.332031 L 66.335938 56.332031 C 57.945312 56.332031 51.152344 49.953125 50.351562 41.71875 L 98.304688 41.71875 C 97.507812 49.953125 90.714844 56.332031 82.320312 56.332031 Z M 100.96875 39.058594 L 47.6875 39.058594 C 46.890625 39.058594 46.355469 38.527344 46.355469 37.730469 C 46.355469 36.933594 46.890625 36.402344 47.6875 36.402344 L 100.96875 36.402344 C 101.769531 36.402344 102.300781 36.933594 102.300781 37.730469 C 102.300781 38.527344 101.769531 39.058594 100.96875 39.058594 Z M 100.96875 39.058594 " fill-opacity="1" fill-rule="nonzero"/></g><g fill="#ffca4b" fill-opacity="1"><g transform="translate(3.489829, 76.776444)"><g><path d="M 21.0625 -25.734375 C 19.996094 -26.488281 18.585938 -26.25 17.523438 -25.117188 C 17.179688 -24.738281 16.871094 -24.289062 16.558594 -23.84375 C 16.355469 -23.570312 16.183594 -23.328125 15.976562 -23.089844 C 15.046875 -21.851562 14.085938 -20.613281 13.089844 -19.308594 L 11.441406 -17.179688 L 11.132812 -17.660156 C 10.789062 -18.277344 10.445312 -18.863281 10.101562 -19.410156 C 9.34375 -20.648438 8.65625 -21.816406 7.9375 -22.917969 L 7.832031 -23.054688 C 6.976562 -24.359375 6.117188 -25.734375 5.085938 -26.902344 C 4.570312 -27.484375 3.917969 -27.726562 3.332031 -27.726562 C 2.921875 -27.726562 2.542969 -27.589844 2.234375 -27.417969 C 1.410156 -26.902344 1.097656 -25.941406 1.339844 -24.667969 C 1.410156 -24.429688 1.441406 -24.152344 1.546875 -23.949219 C 1.820312 -23.292969 2.0625 -22.640625 2.300781 -21.988281 C 2.886719 -20.410156 3.503906 -18.828125 4.226562 -17.316406 C 5.429688 -14.808594 7.113281 -12.851562 9.171875 -11.511719 C 9.585938 -11.234375 9.828125 -10.546875 9.792969 -10.066406 C 9.757812 -9.171875 9.65625 -8.316406 9.585938 -7.421875 C 9.484375 -6.117188 9.34375 -4.742188 9.34375 -3.367188 C 9.34375 -2.199219 9.722656 -1.203125 10.410156 -0.515625 C 10.925781 0 11.578125 0.242188 12.265625 0.242188 C 13.949219 0.207031 15.046875 -1.269531 14.980469 -3.402344 C 14.945312 -5.738281 14.773438 -8.175781 14.464844 -10.890625 C 14.363281 -11.921875 14.535156 -12.609375 15.1875 -13.46875 C 17.144531 -16.046875 19.445312 -19.101562 21.578125 -22.332031 C 22.503906 -23.742188 21.953125 -25.082031 21.0625 -25.734375 Z M 21.0625 -25.734375 "/></g></g></g><g fill="#ffca4b" fill-opacity="1"><g transform="translate(26.853004, 76.776444)"><g><path d="M 16.835938 -5.773438 C 16.113281 -8.898438 15.460938 -12.023438 15.90625 -15.253906 C 15.941406 -15.496094 15.90625 -15.734375 15.90625 -15.976562 C 15.839844 -17.316406 15.015625 -18.242188 13.8125 -18.382812 C 12.574219 -18.519531 11.542969 -17.832031 11.199219 -16.527344 C 10.683594 -14.636719 10.339844 -12.710938 9.828125 -10.855469 C 9.515625 -9.859375 9.105469 -8.863281 8.488281 -8.039062 C 7.765625 -7.007812 7.042969 -7.144531 6.664062 -8.347656 C 6.355469 -9.378906 6.148438 -10.445312 6.046875 -11.542969 C 5.910156 -12.882812 5.910156 -14.257812 5.839844 -15.632812 C 5.773438 -16.558594 5.496094 -17.351562 4.464844 -17.523438 C 3.503906 -17.695312 2.851562 -17.144531 2.542969 -16.320312 C 1.066406 -12.679688 0.722656 -8.96875 2.269531 -5.292969 C 3.640625 -2.097656 6.941406 -1.03125 10 -2.644531 C 10.855469 -3.09375 11.613281 -3.710938 12.472656 -4.292969 C 12.574219 -4.191406 12.609375 -4.15625 12.679688 -4.089844 C 13.535156 -2.609375 14.535156 -2.128906 15.667969 -2.578125 C 16.800781 -3.058594 17.214844 -4.226562 16.835938 -5.773438 Z M 16.835938 -5.773438 "/></g></g></g><g fill="#ffca4b" fill-opacity="1"><g transform="translate(45.13126, 76.776444)"><g><path d="M 26.730469 -7.628906 C 26.457031 -10.066406 26.214844 -12.539062 24.773438 -14.671875 C 22.777344 -17.660156 19.480469 -18.039062 16.902344 -15.53125 C 16.558594 -15.21875 16.320312 -14.773438 16.011719 -14.363281 C 12.816406 -18.039062 11.921875 -18.039062 7.078125 -14.601562 C 6.941406 -15.1875 6.941406 -15.839844 6.664062 -16.285156 C 6.289062 -16.871094 5.703125 -17.558594 5.121094 -17.625 C 4.535156 -17.730469 3.746094 -17.246094 3.230469 -16.800781 C 2.851562 -16.492188 2.609375 -15.875 2.542969 -15.359375 C 2.097656 -12.128906 1.648438 -8.863281 1.269531 -5.632812 C 1.203125 -5.121094 1.375 -4.535156 1.546875 -4.019531 C 1.992188 -2.714844 3.058594 -1.890625 4.292969 -1.820312 C 5.601562 -1.753906 6.699219 -2.472656 7.285156 -3.847656 C 7.488281 -4.363281 7.59375 -4.914062 7.800781 -5.429688 C 8.417969 -7.179688 9.035156 -8.96875 9.792969 -10.652344 C 10.136719 -11.441406 10.855469 -12.058594 11.40625 -12.78125 C 11.578125 -12.710938 11.75 -12.644531 11.921875 -12.609375 C 11.992188 -11.269531 12.128906 -9.929688 12.128906 -8.589844 C 12.128906 -7.285156 11.957031 -6.011719 11.992188 -4.742188 C 12.023438 -2.953125 13.191406 -1.71875 14.738281 -1.683594 C 16.25 -1.613281 17.453125 -2.714844 17.660156 -4.433594 C 17.761719 -5.085938 17.730469 -5.773438 17.796875 -6.425781 C 17.898438 -8.144531 18.726562 -9.550781 19.722656 -10.890625 C 19.859375 -10.855469 19.960938 -10.824219 20.066406 -10.824219 C 20.132812 -10.066406 20.132812 -9.277344 20.269531 -8.519531 C 20.613281 -6.90625 20.855469 -5.222656 21.472656 -3.710938 C 21.953125 -2.472656 23.15625 -1.855469 24.566406 -2.097656 C 25.734375 -2.300781 26.628906 -3.332031 26.765625 -4.808594 C 26.867188 -5.738281 26.832031 -6.699219 26.730469 -7.628906 Z M 26.730469 -7.628906 "/></g></g></g><g fill="#ffca4b" fill-opacity="1"><g transform="translate(73.270139, 76.776444)"><g><path d="M 26.730469 -7.628906 C 26.457031 -10.066406 26.214844 -12.539062 24.773438 -14.671875 C 22.777344 -17.660156 19.480469 -18.039062 16.902344 -15.53125 C 16.558594 -15.21875 16.320312 -14.773438 16.011719 -14.363281 C 12.816406 -18.039062 11.921875 -18.039062 7.078125 -14.601562 C 6.941406 -15.1875 6.941406 -15.839844 6.664062 -16.285156 C 6.289062 -16.871094 5.703125 -17.558594 5.121094 -17.625 C 4.535156 -17.730469 3.746094 -17.246094 3.230469 -16.800781 C 2.851562 -16.492188 2.609375 -15.875 2.542969 -15.359375 C 2.097656 -12.128906 1.648438 -8.863281 1.269531 -5.632812 C 1.203125 -5.121094 1.375 -4.535156 1.546875 -4.019531 C 1.992188 -2.714844 3.058594 -1.890625 4.292969 -1.820312 C 5.601562 -1.753906 6.699219 -2.472656 7.285156 -3.847656 C 7.488281 -4.363281 7.59375 -4.914062 7.800781 -5.429688 C 8.417969 -7.179688 9.035156 -8.96875 9.792969 -10.652344 C 10.136719 -11.441406 10.855469 -12.058594 11.40625 -12.78125 C 11.578125 -12.710938 11.75 -12.644531 11.921875 -12.609375 C 11.992188 -11.269531 12.128906 -9.929688 12.128906 -8.589844 C 12.128906 -7.285156 11.957031 -6.011719 11.992188 -4.742188 C 12.023438 -2.953125 13.191406 -1.71875 14.738281 -1.683594 C 16.25 -1.613281 17.453125 -2.714844 17.660156 -4.433594 C 17.761719 -5.085938 17.730469 -5.773438 17.796875 -6.425781 C 17.898438 -8.144531 18.726562 -9.550781 19.722656 -10.890625 C 19.859375 -10.855469 19.960938 -10.824219 20.066406 -10.824219 C 20.132812 -10.066406 20.132812 -9.277344 20.269531 -8.519531 C 20.613281 -6.90625 20.855469 -5.222656 21.472656 -3.710938 C 21.953125 -2.472656 23.15625 -1.855469 24.566406 -2.097656 C 25.734375 -2.300781 26.628906 -3.332031 26.765625 -4.808594 C 26.867188 -5.738281 26.832031 -6.699219 26.730469 -7.628906 Z M 26.730469 -7.628906 "/></g></g></g><g fill="#ffca4b" fill-opacity="1"><g transform="translate(101.409018, 76.776444)"><g><path d="M 14.808594 -16.628906 C 13.46875 -18.003906 11.820312 -18.898438 9.929688 -19.242188 C 7.179688 -19.753906 4.671875 -18.65625 3.125 -16.355469 C 1.957031 -14.566406 1.476562 -12.574219 1.304688 -10.480469 C 0.859375 -5.460938 4.328125 -1.269531 10.652344 -1.925781 C 11.542969 -1.992188 12.609375 -2.609375 13.261719 -3.265625 C 14.464844 -4.535156 14.050781 -6.046875 12.402344 -6.5625 C 11.269531 -6.941406 10.03125 -6.976562 8.863281 -7.179688 C 8.246094 -7.316406 7.660156 -7.523438 7.042969 -7.730469 C 9.171875 -8.109375 11.234375 -8.246094 13.089844 -8.898438 C 16.628906 -10.136719 17.417969 -13.914062 14.808594 -16.628906 Z M 11.75 -13.332031 C 10.203125 -13.160156 8.625 -12.988281 6.90625 -12.816406 C 7.179688 -13.847656 7.628906 -14.636719 8.65625 -14.945312 C 9.828125 -15.289062 11.269531 -14.707031 12.164062 -13.503906 C 11.957031 -13.398438 11.851562 -13.332031 11.75 -13.332031 Z M 11.75 -13.332031 "/></g></g></g><g fill="#ffca4b" fill-opacity="1"><g transform="translate(119.06883, 76.776444)"><g><path d="M 17.660156 -6.871094 C 17.144531 -9.242188 16.765625 -11.679688 16.25 -14.085938 C 16.078125 -14.84375 15.875 -15.839844 15.324219 -16.285156 C 13.675781 -17.558594 11.851562 -18.65625 9.550781 -18.277344 C 5.53125 -17.558594 1.613281 -13.160156 1.269531 -8.863281 C 0.960938 -4.914062 4.121094 -2.164062 8.039062 -3.09375 C 9.070312 -3.367188 10.03125 -3.949219 10.996094 -4.433594 C 11.339844 -4.605469 11.613281 -4.878906 11.957031 -5.121094 C 12.128906 -4.878906 12.265625 -4.742188 12.367188 -4.570312 C 13.503906 -2.851562 14.980469 -2.199219 16.355469 -2.78125 C 17.695312 -3.367188 18.105469 -4.808594 17.660156 -6.871094 Z M 7.695312 -8.074219 C 7.316406 -7.9375 6.769531 -7.902344 6.425781 -8.074219 C 6.21875 -8.175781 6.21875 -8.898438 6.355469 -9.242188 C 7.113281 -11.371094 8.316406 -13.089844 10.617188 -14.050781 C 11.027344 -11.40625 9.792969 -8.898438 7.695312 -8.074219 Z M 7.695312 -8.074219 "/></g></g></g><g fill="#ffca4b" fill-opacity="1"><g transform="translate(138.20602, 76.776444)"><g><path d="M 6.183594 -21.921875 C 6.117188 -22.8125 6.046875 -23.777344 5.632812 -24.53125 C 5.359375 -25.082031 4.570312 -25.699219 3.984375 -25.699219 C 3.402344 -25.699219 2.714844 -25.082031 2.269531 -24.566406 C 1.957031 -24.152344 1.855469 -23.5 1.785156 -22.917969 C 1.476562 -19.515625 1.203125 -8.65625 1.269531 -6.664062 C 1.269531 -5.804688 1.410156 -4.949219 1.613281 -4.121094 C 1.992188 -2.816406 2.921875 -2.0625 3.984375 -2.027344 C 5.050781 -1.992188 6.117188 -2.679688 6.460938 -3.984375 C 6.804688 -5.460938 7.078125 -6.976562 7.007812 -8.488281 C 6.835938 -12.953125 6.492188 -17.453125 6.183594 -21.921875 Z M 6.183594 -21.921875 "/></g></g></g></svg>